<?xml version="1.0" encoding="UTF-8" standalone="no"?>
<!DOCTYPE svg PUBLIC "-//W3C//DTD SVG 1.1//EN"
 "http://www.w3.org/Graphics/SVG/1.1/DTD/svg11.dtd">
<!-- Generated by graphviz version 13.1.1 (20250719.2154)
 -->
<!-- Title: IELTS_Conceptual_ERD Pages: 1 -->
<svg width="816pt" height="1654pt"
 viewBox="0.00 0.00 816.00 1654.00" xmlns="http://www.w3.org/2000/svg" xmlns:xlink="http://www.w3.org/1999/xlink">
<g id="graph0" class="graph" transform="scale(1 1) rotate(0) translate(36 1617.6)">
<title>IELTS_Conceptual_ERD</title>
<polygon fill="white" stroke="none" points="-36,36 -36,-1617.6 779.62,-1617.6 779.62,36 -36,36"/>
<!-- User -->
<g id="node1" class="node">
<title>User</title>
<polygon fill="none" stroke="black" stroke-width="2" points="455.34,-1303.2 400.45,-1303.2 400.45,-1267.2 455.34,-1267.2 455.34,-1303.2"/>
<text xml:space="preserve" text-anchor="middle" x="427.89" y="-1281" font-family="Arial" font-size="14.00">USER</text>
</g>
<!-- Pays -->
<g id="node14" class="node">
<title>Pays</title>
<polygon fill="lightgrey" stroke="lightgrey" points="536.89,-1183.2 496.2,-1161.6 536.89,-1140 577.59,-1161.6 536.89,-1183.2"/>
<text xml:space="preserve" text-anchor="middle" x="536.89" y="-1157.4" font-family="Arial" font-size="14.00">Pays</text>
</g>
<!-- User&#45;&gt;Pays -->
<g id="edge5" class="edge">
<title>User&#45;&gt;Pays</title>
<path fill="none" stroke="black" d="M443.51,-1266.78C465.29,-1242.48 504.36,-1198.89 524.36,-1176.59"/>
<text xml:space="preserve" text-anchor="middle" x="488.44" y="-1222.2" font-family="Arial" font-size="10.00">1</text>
</g>
<!-- Performs -->
<g id="node15" class="node">
<title>Performs</title>
<polygon fill="lightgrey" stroke="lightgrey" points="170.89,-1183.2 108.04,-1161.6 170.89,-1140 233.75,-1161.6 170.89,-1183.2"/>
<text xml:space="preserve" text-anchor="middle" x="170.89" y="-1157.4" font-family="Arial" font-size="14.00">Performs</text>
</g>
<!-- User&#45;&gt;Performs -->
<g id="edge7" class="edge">
<title>User&#45;&gt;Performs</title>
<path fill="none" stroke="black" d="M400.39,-1271.19C350.41,-1247.54 245.35,-1197.83 196.67,-1174.8"/>
<text xml:space="preserve" text-anchor="middle" x="317.56" y="-1222.2" font-family="Arial" font-size="10.00">1</text>
</g>
<!-- Generates -->
<g id="node16" class="node">
<title>Generates</title>
<polygon fill="lightgrey" stroke="lightgrey" points="365.89,-1183.2 295.62,-1161.6 365.89,-1140 436.17,-1161.6 365.89,-1183.2"/>
<text xml:space="preserve" text-anchor="middle" x="365.89" y="-1157.4" font-family="Arial" font-size="14.00">Generates</text>
</g>
<!-- User&#45;&gt;Generates -->
<g id="edge9" class="edge">
<title>User&#45;&gt;Generates</title>
<path fill="none" stroke="black" d="M419.01,-1266.78C407.36,-1243.92 387.01,-1204.01 375.17,-1180.78"/>
<text xml:space="preserve" text-anchor="middle" x="403.39" y="-1222.2" font-family="Arial" font-size="10.00">1</text>
</g>
<!-- Consultancy -->
<g id="node2" class="node">
<title>Consultancy</title>
<polygon fill="none" stroke="black" stroke-width="2" points="650.79,-1581.6 529,-1581.6 529,-1545.6 650.79,-1545.6 650.79,-1581.6"/>
<text xml:space="preserve" text-anchor="middle" x="589.89" y="-1559.4" font-family="Arial" font-size="14.00">CONSULTANCY</text>
</g>
<!-- Belongs -->
<g id="node12" class="node">
<title>Belongs</title>
<polygon fill="lightgrey" stroke="lightgrey" points="503.89,-1461.6 446.39,-1440 503.89,-1418.4 561.4,-1440 503.89,-1461.6"/>
<text xml:space="preserve" text-anchor="middle" x="503.89" y="-1435.8" font-family="Arial" font-size="14.00">Belongs</text>
</g>
<!-- Consultancy&#45;&gt;Belongs -->
<g id="edge1" class="edge">
<title>Consultancy&#45;&gt;Belongs</title>
<path fill="none" stroke="black" d="M577.57,-1545.18C561.04,-1521.8 531.88,-1480.57 515.64,-1457.61"/>
<text xml:space="preserve" text-anchor="middle" x="554.82" y="-1500.6" font-family="Arial" font-size="10.00">1</text>
</g>
<!-- Owns -->
<g id="node13" class="node">
<title>Owns</title>
<polygon fill="lightgrey" stroke="lightgrey" points="698.89,-1382.4 654.17,-1360.8 698.89,-1339.2 743.62,-1360.8 698.89,-1382.4"/>
<text xml:space="preserve" text-anchor="middle" x="698.89" y="-1356.6" font-family="Arial" font-size="14.00">Owns</text>
</g>
<!-- Consultancy&#45;&gt;Owns -->
<g id="edge3" class="edge">
<title>Consultancy&#45;&gt;Owns</title>
<path fill="none" stroke="black" d="M599.38,-1545.13C620.15,-1506.87 669.43,-1416.08 689.82,-1378.52"/>
<text xml:space="preserve" text-anchor="middle" x="626.62" y="-1500.6" font-family="Arial" font-size="10.00">1</text>
</g>
<!-- TestSet -->
<g id="node3" class="node">
<title>TestSet</title>
<polygon fill="none" stroke="black" stroke-width="2" points="510.29,-777.6 423.5,-777.6 423.5,-741.6 510.29,-741.6 510.29,-777.6"/>
<text xml:space="preserve" text-anchor="middle" x="466.89" y="-755.4" font-family="Arial" font-size="14.00">TEST_SET</text>
</g>
<!-- Contains -->
<g id="node17" class="node">
<title>Contains</title>
<polygon fill="lightgrey" stroke="lightgrey" points="466.89,-657.6 405.36,-636 466.89,-614.4 528.43,-636 466.89,-657.6"/>
<text xml:space="preserve" text-anchor="middle" x="466.89" y="-631.8" font-family="Arial" font-size="14.00">Contains</text>
</g>
<!-- TestSet&#45;&gt;Contains -->
<g id="edge11" class="edge">
<title>TestSet&#45;&gt;Contains</title>
<path fill="none" stroke="black" d="M466.89,-741.18C466.89,-719.24 466.89,-681.59 466.89,-658.07"/>
<text xml:space="preserve" text-anchor="middle" x="469.67" y="-696.6" font-family="Arial" font-size="10.00">1</text>
</g>
<!-- Section -->
<g id="node4" class="node">
<title>Section</title>
<polygon fill="none" stroke="black" stroke-width="2" points="527.79,-530.4 406,-530.4 406,-494.4 527.79,-494.4 527.79,-530.4"/>
<text xml:space="preserve" text-anchor="middle" x="466.89" y="-508.2" font-family="Arial" font-size="14.00">TEST_SECTION</text>
</g>
<!-- Includes -->
<g id="node18" class="node">
<title>Includes</title>
<polygon fill="lightgrey" stroke="lightgrey" points="466.89,-410.4 408.05,-388.8 466.89,-367.2 525.74,-388.8 466.89,-410.4"/>
<text xml:space="preserve" text-anchor="middle" x="466.89" y="-384.6" font-family="Arial" font-size="14.00">Includes</text>
</g>
<!-- Section&#45;&gt;Includes -->
<g id="edge13" class="edge">
<title>Section&#45;&gt;Includes</title>
<path fill="none" stroke="black" d="M466.89,-493.98C466.89,-472.04 466.89,-434.39 466.89,-410.87"/>
<text xml:space="preserve" text-anchor="middle" x="469.67" y="-449.4" font-family="Arial" font-size="10.00">1</text>
</g>
<!-- Question -->
<g id="node5" class="node">
<title>Question</title>
<polygon fill="none" stroke="black" stroke-width="2" points="533.24,-283.2 400.55,-283.2 400.55,-247.2 533.24,-247.2 533.24,-283.2"/>
<text xml:space="preserve" text-anchor="middle" x="466.89" y="-261" font-family="Arial" font-size="14.00">TEST_QUESTION</text>
</g>
<!-- Tagged_With -->
<g id="node19" class="node">
<title>Tagged_With</title>
<polygon fill="lightgrey" stroke="lightgrey" points="579.89,-163.2 494.17,-141.6 579.89,-120 665.62,-141.6 579.89,-163.2"/>
<text xml:space="preserve" text-anchor="middle" x="579.89" y="-137.4" font-family="Arial" font-size="14.00">Tagged_With</text>
</g>
<!-- Question&#45;&gt;Tagged_With -->
<g id="edge15" class="edge">
<title>Question&#45;&gt;Tagged_With</title>
<path fill="none" stroke="black" d="M483.08,-246.78C504.69,-223.53 542.7,-182.63 564.1,-159.6"/>
<text xml:space="preserve" text-anchor="middle" x="530.95" y="-202.2" font-family="Arial" font-size="10.00">M</text>
</g>
<!-- Result_In -->
<g id="node23" class="node">
<title>Result_In</title>
<polygon fill="lightgrey" stroke="lightgrey" points="370.89,-163.2 306,-141.6 370.89,-120 435.79,-141.6 370.89,-163.2"/>
<text xml:space="preserve" text-anchor="middle" x="370.89" y="-137.4" font-family="Arial" font-size="14.00">Result_In</text>
</g>
<!-- Question&#45;&gt;Result_In -->
<g id="edge23" class="edge">
<title>Question&#45;&gt;Result_In</title>
<path fill="none" stroke="black" d="M453.14,-246.78C434.68,-223.4 402.13,-182.17 384.01,-159.21"/>
<text xml:space="preserve" text-anchor="middle" x="427.42" y="-202.2" font-family="Arial" font-size="10.00">1</text>
</g>
<!-- Tag -->
<g id="node6" class="node">
<title>Tag</title>
<polygon fill="none" stroke="black" stroke-width="2" points="642.74,-36 517.05,-36 517.05,0 642.74,0 642.74,-36"/>
<text xml:space="preserve" text-anchor="middle" x="579.89" y="-13.8" font-family="Arial" font-size="14.00">QUESTION_TAG</text>
</g>
<!-- Attempt -->
<g id="node7" class="node">
<title>Attempt</title>
<polygon fill="none" stroke="black" stroke-width="2" points="224.34,-1056 99.45,-1056 99.45,-1020 224.34,-1020 224.34,-1056"/>
<text xml:space="preserve" text-anchor="middle" x="161.89" y="-1033.8" font-family="Arial" font-size="14.00">TEST_ATTEMPT</text>
</g>
<!-- References -->
<g id="node20" class="node">
<title>References</title>
<polygon fill="lightgrey" stroke="lightgrey" points="410.89,-936 335.25,-914.4 410.89,-892.8 486.54,-914.4 410.89,-936"/>
<text xml:space="preserve" text-anchor="middle" x="410.89" y="-910.2" font-family="Arial" font-size="14.00">References</text>
</g>
<!-- Attempt&#45;&gt;References -->
<g id="edge17" class="edge">
<title>Attempt&#45;&gt;References</title>
<path fill="none" stroke="black" d="M197.57,-1019.58C247.86,-995.02 338.51,-950.75 383.72,-928.67"/>
<text xml:space="preserve" text-anchor="middle" x="297.47" y="-975" font-family="Arial" font-size="10.00">N</text>
</g>
<!-- Produces -->
<g id="node21" class="node">
<title>Produces</title>
<polygon fill="lightgrey" stroke="lightgrey" points="64.89,-936 0,-914.4 64.89,-892.8 129.79,-914.4 64.89,-936"/>
<text xml:space="preserve" text-anchor="middle" x="64.89" y="-910.2" font-family="Arial" font-size="14.00">Produces</text>
</g>
<!-- Attempt&#45;&gt;Produces -->
<g id="edge19" class="edge">
<title>Attempt&#45;&gt;Produces</title>
<path fill="none" stroke="black" d="M148,-1019.58C129.35,-996.2 96.46,-954.97 78.14,-932.01"/>
<text xml:space="preserve" text-anchor="middle" x="121.98" y="-975" font-family="Arial" font-size="10.00">1</text>
</g>
<!-- Records -->
<g id="node22" class="node">
<title>Records</title>
<polygon fill="lightgrey" stroke="lightgrey" points="217.89,-856.8 159.06,-835.2 217.89,-813.6 276.73,-835.2 217.89,-856.8"/>
<text xml:space="preserve" text-anchor="middle" x="217.89" y="-831" font-family="Arial" font-size="14.00">Records</text>
</g>
<!-- Attempt&#45;&gt;Records -->
<g id="edge21" class="edge">
<title>Attempt&#45;&gt;Records</title>
<path fill="none" stroke="black" d="M166.77,-1019.53C177.22,-982.03 201.75,-894.09 212.59,-855.23"/>
<text xml:space="preserve" text-anchor="middle" x="182.11" y="-975" font-family="Arial" font-size="10.00">1</text>
</g>
<!-- Answer -->
<g id="node8" class="node">
<title>Answer</title>
<polygon fill="none" stroke="black" stroke-width="2" points="340.4,-36 219.39,-36 219.39,0 340.4,0 340.4,-36"/>
<text xml:space="preserve" text-anchor="middle" x="279.89" y="-13.8" font-family="Arial" font-size="14.00">TEST_ANSWER</text>
</g>
<!-- Transaction -->
<g id="node9" class="node">
<title>Transaction</title>
<polygon fill="none" stroke="black" stroke-width="2" points="647.01,-1056 456.78,-1056 456.78,-1020 647.01,-1020 647.01,-1056"/>
<text xml:space="preserve" text-anchor="middle" x="551.89" y="-1033.8" font-family="Arial" font-size="14.00">PREMIUM_TRANSACTION</text>
</g>
<!-- PDF -->
<g id="node10" class="node">
<title>PDF</title>
<polygon fill="none" stroke="black" stroke-width="2" points="118.4,-777.6 11.38,-777.6 11.38,-741.6 118.4,-741.6 118.4,-777.6"/>
<text xml:space="preserve" text-anchor="middle" x="64.89" y="-755.4" font-family="Arial" font-size="14.00">RESULT_PDF</text>
</g>
<!-- Log -->
<g id="node11" class="node">
<title>Log</title>
<polygon fill="none" stroke="black" stroke-width="2" points="399.07,-1056 282.71,-1056 282.71,-1020 399.07,-1020 399.07,-1056"/>
<text xml:space="preserve" text-anchor="middle" x="340.89" y="-1033.8" font-family="Arial" font-size="14.00">ACTIVITY_LOG</text>
</g>
<!-- Belongs&#45;&gt;User -->
<g id="edge2" class="edge">
<title>Belongs&#45;&gt;User</title>
<path fill="none" stroke="black" d="M495.18,-1421.47C480.52,-1392 451.1,-1332.86 436.51,-1303.52"/>
<text xml:space="preserve" text-anchor="middle" x="478.55" y="-1357.8" font-family="Arial" font-size="10.00">N</text>
</g>
<!-- Owns&#45;&gt;TestSet -->
<g id="edge4" class="edge">
<title>Owns&#45;&gt;TestSet</title>
<path fill="none" stroke="black" d="M706.71,-1342.48C717.29,-1317.38 734.89,-1269.2 734.89,-1226.2 734.89,-1226.2 734.89,-1226.2 734.89,-913.4 734.89,-811.37 586.49,-776.58 510.55,-765.45"/>
<text xml:space="preserve" text-anchor="middle" x="738.5" y="-1095" font-family="Arial" font-size="10.00">N</text>
</g>
<!-- Pays&#45;&gt;Transaction -->
<g id="edge6" class="edge">
<title>Pays&#45;&gt;Transaction</title>
<path fill="none" stroke="black" d="M539.34,-1140.79C542.23,-1117.37 546.99,-1078.76 549.74,-1056.43"/>
<text xml:space="preserve" text-anchor="middle" x="548.9" y="-1095" font-family="Arial" font-size="10.00">N</text>
</g>
<!-- Performs&#45;&gt;Attempt -->
<g id="edge8" class="edge">
<title>Performs&#45;&gt;Attempt</title>
<path fill="none" stroke="black" d="M169.39,-1140.25C167.65,-1116.72 164.81,-1078.4 163.17,-1056.27"/>
<text xml:space="preserve" text-anchor="middle" x="170.27" y="-1095" font-family="Arial" font-size="10.00">N</text>
</g>
<!-- Generates&#45;&gt;Log -->
<g id="edge10" class="edge">
<title>Generates&#45;&gt;Log</title>
<path fill="none" stroke="black" d="M361.82,-1140.79C357.01,-1117.37 349.07,-1078.76 344.48,-1056.43"/>
<text xml:space="preserve" text-anchor="middle" x="357.75" y="-1095" font-family="Arial" font-size="10.00">N</text>
</g>
<!-- Contains&#45;&gt;Section -->
<g id="edge12" class="edge">
<title>Contains&#45;&gt;Section</title>
<path fill="none" stroke="black" d="M466.89,-614.1C466.89,-590.6 466.89,-552.88 466.89,-530.88"/>
<text xml:space="preserve" text-anchor="middle" x="470.5" y="-569.4" font-family="Arial" font-size="10.00">N</text>
</g>
<!-- Includes&#45;&gt;Question -->
<g id="edge14" class="edge">
<title>Includes&#45;&gt;Question</title>
<path fill="none" stroke="black" d="M466.89,-366.9C466.89,-343.4 466.89,-305.68 466.89,-283.68"/>
<text xml:space="preserve" text-anchor="middle" x="470.5" y="-322.2" font-family="Arial" font-size="10.00">N</text>
</g>
<!-- Tagged_With&#45;&gt;Tag -->
<g id="edge16" class="edge">
<title>Tagged_With&#45;&gt;Tag</title>
<path fill="none" stroke="black" d="M579.89,-119.7C579.89,-96.2 579.89,-58.48 579.89,-36.48"/>
<text xml:space="preserve" text-anchor="middle" x="583.5" y="-75" font-family="Arial" font-size="10.00">N</text>
</g>
<!-- References&#45;&gt;TestSet -->
<g id="edge18" class="edge">
<title>References&#45;&gt;TestSet</title>
<path fill="none" stroke="black" d="M417.87,-894.36C428.84,-864.44 449.94,-806.86 460.52,-777.99"/>
<text xml:space="preserve" text-anchor="middle" x="449.96" y="-832.2" font-family="Arial" font-size="10.00">1</text>
</g>
<!-- Produces&#45;&gt;PDF -->
<g id="edge20" class="edge">
<title>Produces&#45;&gt;PDF</title>
<path fill="none" stroke="black" d="M64.89,-892.47C64.89,-862.07 64.89,-806.23 64.89,-777.97"/>
<text xml:space="preserve" text-anchor="middle" x="67.67" y="-832.2" font-family="Arial" font-size="10.00">1</text>
</g>
<!-- Records&#45;&gt;Answer -->
<g id="edge22" class="edge">
<title>Records&#45;&gt;Answer</title>
<path fill="none" stroke="black" d="M217.89,-813.37C217.89,-787.09 217.89,-740.49 217.89,-700.6 217.89,-700.6 217.89,-700.6 217.89,-140.6 217.89,-99.6 246.21,-58.48 264.57,-36.13"/>
<text xml:space="preserve" text-anchor="middle" x="221.5" y="-449.4" font-family="Arial" font-size="10.00">N</text>
</g>
<!-- Result_In&#45;&gt;Answer -->
<g id="edge24" class="edge">
<title>Result_In&#45;&gt;Answer</title>
<path fill="none" stroke="black" d="M358.24,-123.69C340.95,-100.59 310.12,-59.39 292.73,-36.16"/>
<text xml:space="preserve" text-anchor="middle" x="331.73" y="-75" font-family="Arial" font-size="10.00">N</text>
</g>
</g>
</svg>
